<?xml version="1.0" encoding="UTF-8"?>
<svg version="1.1" xmlns="http://www.w3.org/2000/svg" width="500" height="500">
<path d="M0 0 C165 0 330 0 500 0 C500 165 500 330 500 500 C335 500 170 500 0 500 C0 335 0 170 0 0 Z " fill="#FEFEFE" transform="translate(0,0)"/>
<path d="M0 0 C-1.52853935 4.27186525 -3.71509481 7.99326863 -6.125 11.8125 C-6.49753906 12.40998047 -6.87007812 13.00746094 -7.25390625 13.62304688 C-8.1657048 15.08426251 -9.08235976 16.54244585 -10 18 C-10.78761719 17.61328125 -11.57523438 17.2265625 -12.38671875 16.828125 C-33.72838987 6.62453313 -57.9693104 2.73863237 -81 10 C-81.94230469 10.29003906 -82.88460937 10.58007812 -83.85546875 10.87890625 C-107.6346177 18.89472656 -125.33575629 34.36936825 -136.78515625 56.44140625 C-145.3363623 74.90949008 -146.84362598 96.51218685 -141 116 C-140.79503906 116.83144531 -140.59007812 117.66289062 -140.37890625 118.51953125 C-136.75993031 132.43348222 -128.68485301 146.35757167 -118 156 C-117.401875 156.59039062 -116.80375 157.18078125 -116.1875 157.7890625 C-107.45462022 166.104562 -96.46691556 172.28536538 -85 176 C-84.14535156 176.29777344 -83.29070312 176.59554687 -82.41015625 176.90234375 C-66.86946997 181.42895976 -47.3857203 180.85556953 -32 176 C-30.84886719 175.64808594 -29.69773438 175.29617188 -28.51171875 174.93359375 C-7.69861185 168.04138458 7.06219046 156.24054567 19 138 C21.27159689 139.29033905 23.54229625 140.58221402 25.8125 141.875 C26.45509766 142.23980469 27.09769531 142.60460937 27.75976562 142.98046875 C30.56768798 144.58083901 33.30964298 146.20642866 36 148 C30.82269183 162.37282566 17.65389799 174.09362286 5 182 C4.04480469 182.63421875 3.08960938 183.2684375 2.10546875 183.921875 C-23.14534558 199.67691756 -55.77118214 204.96091441 -84.78100586 198.84106445 C-111.12314642 192.73060039 -134.84842408 176.52472084 -149.6027832 153.79614258 C-164.3846773 129.87590636 -171.48811598 98.91163685 -165.80859375 71.1015625 C-161.23197186 53.5467906 -154.35313077 37.55352334 -142 24 C-141.56848633 23.5261084 -141.13697266 23.0522168 -140.69238281 22.56396484 C-106.65378781 -14.32894518 -43.49205303 -29.27079509 0 0 Z " fill="#C8F905" transform="translate(277,112)"/>
<path d="M0 0 C22.54542628 19.01002524 36.14039412 44.26700323 40.0390625 73.5625 C40.29559199 77.52626222 40.3270608 81.46651827 40.2890625 85.4375 C40.27564819 87.02546387 40.27564819 87.02546387 40.26196289 88.64550781 C39.81811753 118.55102651 27.31960683 143.16782827 6.02734375 163.87109375 C-8.92589906 177.61579359 -27.08613293 185.72115621 -46.77539062 190.07470703 C-48.79796388 190.52612586 -50.80985009 191.02472815 -52.8203125 191.52734375 C-76.22826943 196.97747965 -102.22913227 193.50428878 -122.9609375 181.1875 C-124.30331324 180.32643661 -125.64085394 179.45736433 -126.9609375 178.5625 C-125.43239815 174.29063475 -123.24584269 170.56923137 -120.8359375 166.75 C-120.27712891 165.8537793 -120.27712891 165.8537793 -119.70703125 164.93945312 C-118.7952327 163.47823749 -117.87857774 162.02005415 -116.9609375 160.5625 C-116.04054687 161.02140625 -115.12015625 161.4803125 -114.171875 161.953125 C-102.98396422 167.4204529 -91.56995347 172.02731256 -78.9609375 172.5625 C-78.04699219 172.62566406 -77.13304687 172.68882812 -76.19140625 172.75390625 C-52.02633673 173.69619198 -27.13740137 163.84453704 -9.14453125 148.09765625 C3.80716803 135.83046959 13.45009461 119.41629154 16.0390625 101.5625 C16.14863281 100.84707031 16.25820313 100.13164062 16.37109375 99.39453125 C19.68944958 72.98041884 13.13648207 49.65874857 -2.9609375 28.5625 C-3.92580078 27.28246094 -3.92580078 27.28246094 -4.91015625 25.9765625 C-14.76977451 14.37038329 -28.7841551 7.36947509 -42.9609375 2.5625 C-43.76289551 2.29034668 -44.56485352 2.01819336 -45.39111328 1.73779297 C-52.93425531 -0.58051848 -60.10019134 -0.97914634 -67.9609375 -0.9375 C-69.23678711 -0.93105469 -70.51263672 -0.92460937 -71.82714844 -0.91796875 C-95.345068 -0.46672869 -117.45098727 8.33987552 -134.328125 24.8828125 C-138.79089162 29.71607296 -142.48237598 34.98889575 -145.9609375 40.5625 C-148.23253439 39.27216095 -150.50323375 37.98028598 -152.7734375 36.6875 C-153.41603516 36.32269531 -154.05863281 35.95789063 -154.72070312 35.58203125 C-157.52862548 33.98166099 -160.27058048 32.35607134 -162.9609375 30.5625 C-155.42874549 9.6522356 -134.23981716 -3.0780362 -115.33984375 -12.34082031 C-109.71844469 -14.93229451 -103.91470359 -16.76277274 -97.9609375 -18.4375 C-96.84912109 -18.76814453 -96.84912109 -18.76814453 -95.71484375 -19.10546875 C-62.91502061 -28.17485852 -26.7220252 -20.86997219 0 0 Z " fill="#030303" transform="translate(353.9609375,191.4375)"/>
</svg>
