<?xml version="1.0" encoding="UTF-8"?>
<svg version="1.1" xmlns="http://www.w3.org/2000/svg" width="500" height="500">
<path d="M0 0 C165 0 330 0 500 0 C500 165 500 330 500 500 C335 500 170 500 0 500 C0 335 0 170 0 0 Z " fill="#545453" transform="translate(0,0)"/>
<path d="M0 0 C-1.52853935 4.27186525 -3.71509481 7.99326863 -6.125 11.8125 C-6.49753906 12.40998047 -6.87007812 13.00746094 -7.25390625 13.62304688 C-8.1657048 15.08426251 -9.08235976 16.54244585 -10 18 C-10.78761719 17.61328125 -11.57523438 17.2265625 -12.38671875 16.828125 C-33.72838987 6.62453313 -57.9693104 2.73863237 -81 10 C-81.94230469 10.29003906 -82.88460937 10.58007812 -83.85546875 10.87890625 C-107.6346177 18.89472656 -125.33575629 34.36936825 -136.78515625 56.44140625 C-145.3363623 74.90949008 -146.84362598 96.51218685 -141 116 C-140.79503906 116.83144531 -140.59007812 117.66289062 -140.37890625 118.51953125 C-136.75993031 132.43348222 -128.68485301 146.35757167 -118 156 C-117.401875 156.59039062 -116.80375 157.18078125 -116.1875 157.7890625 C-107.45462022 166.104562 -96.46691556 172.28536538 -85 176 C-84.14535156 176.29777344 -83.29070312 176.59554687 -82.41015625 176.90234375 C-58.23997127 183.94251844 -32.1043201 178.3630046 -10.25 167.1875 C2.27633809 160.01366246 11.17769382 149.95220384 19 138 C21.27159689 139.29033905 23.54229625 140.58221402 25.8125 141.875 C26.45509766 142.23980469 27.09769531 142.60460937 27.75976562 142.98046875 C30.56768798 144.58083901 33.30964298 146.20642866 36 148 C30.82269183 162.37282566 17.65389799 174.09362286 5 182 C4.04480469 182.63421875 3.08960938 183.2684375 2.10546875 183.921875 C-23.14534558 199.67691756 -55.77118214 204.96091441 -84.78100586 198.84106445 C-111.10522924 192.73475656 -134.8842105 176.52886853 -149.60498047 153.78735352 C-159.49295518 137.75252442 -166.89149486 117.92329713 -167 99 C-167.03705775 97.46873283 -167.0748755 95.93748395 -167.11328125 94.40625 C-167.6106759 68.27230591 -159.81152964 43.58319155 -142 24 C-141.14019531 23.04738281 -140.28039062 22.09476563 -139.39453125 21.11328125 C-106.15600789 -14.47567236 -41.81853719 -29.62146384 0 0 Z " fill="#C6F603" transform="translate(277,112)"/>
<path d="M0 0 C22.44446206 18.92489346 36.48776536 44.27242274 39.76171875 73.61328125 C41.81061531 102.78841398 35.87079945 130.29715086 16.4375 152.9140625 C-1.07420032 172.25108664 -21.43190101 184.58698279 -46.9609375 190.5625 C-47.99250977 190.80589111 -47.99250977 190.80589111 -49.04492188 191.05419922 C-73.88122889 196.68244559 -100.81176216 194.34634995 -122.9609375 181.1875 C-124.30331324 180.32643661 -125.64085394 179.45736433 -126.9609375 178.5625 C-125.43239815 174.29063475 -123.24584269 170.56923137 -120.8359375 166.75 C-120.27712891 165.8537793 -120.27712891 165.8537793 -119.70703125 164.93945312 C-118.7952327 163.47823749 -117.87857774 162.02005415 -116.9609375 160.5625 C-116.06375 161.02140625 -115.1665625 161.4803125 -114.2421875 161.953125 C-89.93903978 174.0322897 -66.21231975 174.71106165 -40.5234375 166.6875 C-19.0694717 158.9784148 -0.98128294 144.30540168 8.97363281 123.62060547 C12.15901552 116.54217233 14.92071081 109.27476947 16.0390625 101.5625 C16.14863281 100.84707031 16.25820313 100.13164062 16.37109375 99.39453125 C19.68944958 72.98041884 13.13648207 49.65874857 -2.9609375 28.5625 C-3.92580078 27.28246094 -3.92580078 27.28246094 -4.91015625 25.9765625 C-16.99880495 11.74649603 -37.50800213 1.74198056 -55.9609375 -0.4375 C-83.47008257 -2.07170664 -109.04451472 2.88137756 -130.52734375 21.30859375 C-136.72485346 27.04850242 -141.4589248 33.43843594 -145.9609375 40.5625 C-148.23253439 39.27216095 -150.50323375 37.98028598 -152.7734375 36.6875 C-153.41603516 36.32269531 -154.05863281 35.95789063 -154.72070312 35.58203125 C-157.52862548 33.98166099 -160.27058048 32.35607134 -162.9609375 30.5625 C-155.42874549 9.6522356 -134.23981716 -3.0780362 -115.33984375 -12.34082031 C-109.71844469 -14.93229451 -103.91470359 -16.76277274 -97.9609375 -18.4375 C-96.84912109 -18.76814453 -96.84912109 -18.76814453 -95.71484375 -19.10546875 C-62.91502061 -28.17485852 -26.7220252 -20.86997219 0 0 Z " fill="#010101" transform="translate(353.9609375,191.4375)"/>
</svg>
