<svg width="1080" height="1080" viewBox="0 0 1080 1080" fill="none" xmlns="http://www.w3.org/2000/svg">
<rect width="1080" height="1080" fill="white"/>
<g filter="url(#filter0_dd_38_3)">
<path d="M490 364H890L990 614H590L490 364Z" fill="#82B005"/>
</g>
<path d="M570.475 614H190L90 364H477.021L570.475 614Z" fill="#0F172A"/>
<path d="M320.091 669C319.97 667.485 319.402 666.303 318.386 665.455C317.386 664.606 315.864 664.182 313.818 664.182C312.515 664.182 311.447 664.341 310.614 664.659C309.795 664.962 309.189 665.379 308.795 665.909C308.402 666.439 308.197 667.045 308.182 667.727C308.152 668.288 308.25 668.795 308.477 669.25C308.72 669.689 309.098 670.091 309.614 670.455C310.129 670.803 310.788 671.121 311.591 671.409C312.394 671.697 313.348 671.955 314.455 672.182L318.273 673C320.848 673.545 323.053 674.265 324.886 675.159C326.72 676.053 328.22 677.106 329.386 678.318C330.553 679.515 331.409 680.864 331.955 682.364C332.515 683.864 332.803 685.5 332.818 687.273C332.803 690.333 332.038 692.924 330.523 695.045C329.008 697.167 326.841 698.78 324.023 699.886C321.22 700.992 317.848 701.545 313.909 701.545C309.864 701.545 306.333 700.947 303.318 699.75C300.318 698.553 297.985 696.712 296.318 694.227C294.667 691.727 293.833 688.53 293.818 684.636H305.818C305.894 686.061 306.25 687.258 306.886 688.227C307.523 689.197 308.417 689.932 309.568 690.432C310.735 690.932 312.121 691.182 313.727 691.182C315.076 691.182 316.205 691.015 317.114 690.682C318.023 690.348 318.712 689.886 319.182 689.295C319.652 688.705 319.894 688.03 319.909 687.273C319.894 686.561 319.659 685.939 319.205 685.409C318.765 684.864 318.038 684.379 317.023 683.955C316.008 683.515 314.636 683.106 312.909 682.727L308.273 681.727C304.152 680.833 300.902 679.341 298.523 677.25C296.159 675.144 294.985 672.273 295 668.636C294.985 665.682 295.773 663.098 297.364 660.886C298.97 658.659 301.189 656.924 304.023 655.682C306.871 654.439 310.136 653.818 313.818 653.818C317.576 653.818 320.826 654.447 323.568 655.705C326.311 656.962 328.424 658.735 329.909 661.023C331.409 663.295 332.167 665.955 332.182 669H320.091ZM334.432 664.636V654.455H374.887V664.636H360.887V701H348.432V664.636H334.432ZM377.723 701V654.455H411.268V664.636H390.359V672.636H409.541V682.818H390.359V690.818H411.177V701H377.723ZM415.615 701V654.455H435.706C439.16 654.455 442.183 655.083 444.774 656.341C447.365 657.598 449.38 659.409 450.82 661.773C452.259 664.136 452.979 666.97 452.979 670.273C452.979 673.606 452.236 676.417 450.751 678.705C449.282 680.992 447.213 682.72 444.547 683.886C441.895 685.053 438.797 685.636 435.251 685.636H423.251V675.818H432.706C434.191 675.818 435.456 675.636 436.501 675.273C437.562 674.894 438.373 674.295 438.933 673.477C439.509 672.659 439.797 671.591 439.797 670.273C439.797 668.939 439.509 667.856 438.933 667.023C438.373 666.174 437.562 665.553 436.501 665.159C435.456 664.75 434.191 664.545 432.706 664.545H428.251V701H415.615ZM442.888 679.636L454.524 701H440.797L429.433 679.636H442.888ZM456.445 701V654.455H469.081V690.818H487.9V701H456.445ZM503.724 654.455V701H491.087V654.455H503.724ZM548.065 654.455V701H537.52L520.702 676.545H520.429V701H507.792V654.455H518.52L535.065 678.818H535.429V654.455H548.065ZM582.35 669.818C582.153 669.015 581.842 668.311 581.418 667.705C580.994 667.083 580.463 666.561 579.827 666.136C579.206 665.697 578.479 665.371 577.645 665.159C576.827 664.932 575.926 664.818 574.941 664.818C572.819 664.818 571.009 665.326 569.509 666.341C568.024 667.356 566.888 668.818 566.1 670.727C565.327 672.636 564.941 674.939 564.941 677.636C564.941 680.364 565.312 682.697 566.054 684.636C566.797 686.576 567.903 688.061 569.372 689.091C570.842 690.121 572.668 690.636 574.85 690.636C576.774 690.636 578.372 690.356 579.645 689.795C580.933 689.235 581.895 688.439 582.532 687.409C583.168 686.379 583.486 685.167 583.486 683.773L585.668 684H575.032V675H595.668V681.455C595.668 685.697 594.766 689.326 592.963 692.341C591.176 695.341 588.706 697.644 585.554 699.25C582.418 700.841 578.819 701.636 574.759 701.636C570.229 701.636 566.251 700.674 562.827 698.75C559.403 696.826 556.729 694.083 554.804 690.523C552.895 686.962 551.941 682.727 551.941 677.818C551.941 673.97 552.524 670.561 553.691 667.591C554.872 664.621 556.509 662.114 558.6 660.068C560.691 658.008 563.107 656.455 565.85 655.409C568.592 654.348 571.532 653.818 574.668 653.818C577.426 653.818 579.986 654.212 582.35 655C584.729 655.773 586.827 656.879 588.645 658.318C590.479 659.742 591.956 661.432 593.077 663.386C594.198 665.341 594.88 667.485 595.122 669.818H582.35Z" fill="#0F172A"/>
<path d="M620.636 701.682C617.106 701.682 614.053 700.932 611.477 699.432C608.917 697.917 606.939 695.811 605.545 693.114C604.152 690.402 603.455 687.258 603.455 683.682C603.455 680.076 604.152 676.924 605.545 674.227C606.939 671.515 608.917 669.409 611.477 667.909C614.053 666.394 617.106 665.636 620.636 665.636C624.167 665.636 627.212 666.394 629.773 667.909C632.348 669.409 634.333 671.515 635.727 674.227C637.121 676.924 637.818 680.076 637.818 683.682C637.818 687.258 637.121 690.402 635.727 693.114C634.333 695.811 632.348 697.917 629.773 699.432C627.212 700.932 624.167 701.682 620.636 701.682ZM620.682 694.182C622.288 694.182 623.629 693.727 624.705 692.818C625.78 691.894 626.591 690.636 627.136 689.045C627.697 687.455 627.977 685.644 627.977 683.614C627.977 681.583 627.697 679.773 627.136 678.182C626.591 676.591 625.78 675.333 624.705 674.409C623.629 673.485 622.288 673.023 620.682 673.023C619.061 673.023 617.697 673.485 616.591 674.409C615.5 675.333 614.674 676.591 614.114 678.182C613.568 679.773 613.295 681.583 613.295 683.614C613.295 685.644 613.568 687.455 614.114 689.045C614.674 690.636 615.5 691.894 616.591 692.818C617.697 693.727 619.061 694.182 620.682 694.182ZM644.114 701V666.091H653.5V672.182H653.864C654.5 670.015 655.568 668.379 657.068 667.273C658.568 666.152 660.295 665.591 662.25 665.591C662.735 665.591 663.258 665.621 663.818 665.682C664.379 665.742 664.871 665.826 665.295 665.932V674.523C664.841 674.386 664.212 674.265 663.409 674.159C662.606 674.053 661.871 674 661.205 674C659.78 674 658.508 674.311 657.386 674.932C656.28 675.538 655.402 676.386 654.75 677.477C654.114 678.568 653.795 679.826 653.795 681.25V701H644.114ZM670.301 701V666.091H679.983V701H670.301ZM675.165 661.591C673.725 661.591 672.491 661.114 671.46 660.159C670.445 659.189 669.938 658.03 669.938 656.682C669.938 655.348 670.445 654.205 671.46 653.25C672.491 652.28 673.725 651.795 675.165 651.795C676.604 651.795 677.831 652.28 678.847 653.25C679.877 654.205 680.392 655.348 680.392 656.682C680.392 658.03 679.877 659.189 678.847 660.159C677.831 661.114 676.604 661.591 675.165 661.591ZM703.466 714.818C700.33 714.818 697.64 714.386 695.398 713.523C693.17 712.674 691.398 711.515 690.08 710.045C688.761 708.576 687.905 706.924 687.511 705.091L696.466 703.886C696.739 704.583 697.17 705.235 697.761 705.841C698.352 706.447 699.133 706.932 700.102 707.295C701.087 707.674 702.284 707.864 703.693 707.864C705.799 707.864 707.534 707.348 708.898 706.318C710.277 705.303 710.966 703.598 710.966 701.205V694.818H710.557C710.133 695.788 709.496 696.705 708.648 697.568C707.799 698.432 706.708 699.136 705.375 699.682C704.042 700.227 702.451 700.5 700.602 700.5C697.981 700.5 695.595 699.894 693.443 698.682C691.307 697.455 689.602 695.583 688.33 693.068C687.072 690.538 686.443 687.341 686.443 683.477C686.443 679.523 687.087 676.22 688.375 673.568C689.663 670.917 691.375 668.932 693.511 667.614C695.663 666.295 698.019 665.636 700.58 665.636C702.534 665.636 704.17 665.97 705.489 666.636C706.807 667.288 707.867 668.106 708.67 669.091C709.489 670.061 710.117 671.015 710.557 671.955H710.92V666.091H720.534V701.341C720.534 704.311 719.807 706.795 718.352 708.795C716.898 710.795 714.883 712.295 712.307 713.295C709.746 714.311 706.799 714.818 703.466 714.818ZM703.67 693.227C705.231 693.227 706.549 692.841 707.625 692.068C708.716 691.28 709.549 690.159 710.125 688.705C710.716 687.235 711.011 685.477 711.011 683.432C711.011 681.386 710.723 679.614 710.148 678.114C709.572 676.598 708.739 675.424 707.648 674.591C706.557 673.758 705.231 673.341 703.67 673.341C702.08 673.341 700.739 673.773 699.648 674.636C698.557 675.485 697.731 676.667 697.17 678.182C696.61 679.697 696.33 681.447 696.33 683.432C696.33 685.447 696.61 687.189 697.17 688.659C697.746 690.114 698.572 691.242 699.648 692.045C700.739 692.833 702.08 693.227 703.67 693.227ZM728.239 701V666.091H737.92V701H728.239ZM733.102 661.591C731.663 661.591 730.428 661.114 729.398 660.159C728.383 659.189 727.875 658.03 727.875 656.682C727.875 655.348 728.383 654.205 729.398 653.25C730.428 652.28 731.663 651.795 733.102 651.795C734.542 651.795 735.769 652.28 736.784 653.25C737.814 654.205 738.33 655.348 738.33 656.682C738.33 658.03 737.814 659.189 736.784 660.159C735.769 661.114 734.542 661.591 733.102 661.591ZM755.358 680.818V701H745.676V666.091H754.903V672.25H755.312C756.085 670.22 757.381 668.614 759.199 667.432C761.017 666.235 763.222 665.636 765.812 665.636C768.237 665.636 770.35 666.167 772.153 667.227C773.956 668.288 775.358 669.803 776.358 671.773C777.358 673.727 777.858 676.061 777.858 678.773V701H768.176V680.5C768.191 678.364 767.646 676.697 766.54 675.5C765.434 674.288 763.911 673.682 761.972 673.682C760.669 673.682 759.517 673.962 758.517 674.523C757.532 675.083 756.759 675.902 756.199 676.977C755.653 678.038 755.373 679.318 755.358 680.818Z" fill="#82B005"/>
<defs>
<filter id="filter0_dd_38_3" x="466" y="352" width="548" height="298" filterUnits="userSpaceOnUse" color-interpolation-filters="sRGB">
<feFlood flood-opacity="0" result="BackgroundImageFix"/>
<feColorMatrix in="SourceAlpha" type="matrix" values="0 0 0 0 0 0 0 0 0 0 0 0 0 0 0 0 0 0 127 0" result="hardAlpha"/>
<feOffset dy="2"/>
<feGaussianBlur stdDeviation="2"/>
<feComposite in2="hardAlpha" operator="out"/>
<feColorMatrix type="matrix" values="0 0 0 0 0.121569 0 0 0 0 0.180392 0 0 0 0 0 0 0 0 0.12 0"/>
<feBlend mode="normal" in2="BackgroundImageFix" result="effect1_dropShadow_38_3"/>
<feColorMatrix in="SourceAlpha" type="matrix" values="0 0 0 0 0 0 0 0 0 0 0 0 0 0 0 0 0 0 127 0" result="hardAlpha"/>
<feOffset dy="12"/>
<feGaussianBlur stdDeviation="12"/>
<feComposite in2="hardAlpha" operator="out"/>
<feColorMatrix type="matrix" values="0 0 0 0 0.121569 0 0 0 0 0.180392 0 0 0 0 0 0 0 0 0.18 0"/>
<feBlend mode="normal" in2="effect1_dropShadow_38_3" result="effect2_dropShadow_38_3"/>
<feBlend mode="normal" in="SourceGraphic" in2="effect2_dropShadow_38_3" result="shape"/>
</filter>
</defs>
</svg>
